<svg width="25" height="24" viewBox="0 0 25 24" fill="none" xmlns="http://www.w3.org/2000/svg">
<g id="Pen">
<path id="Vector" d="M17.3103 6.06007L4.55422 18.8476L3.78125 20.7188L5.6525 19.9459L18.44 7.18976L17.3103 6.06007ZM19.8627 3.5082L19.31 4.06039L20.4397 5.19007L20.9923 4.63742C21.1374 4.4923 21.2188 4.29554 21.2188 4.09039C21.2188 3.88523 21.1374 3.68847 20.9923 3.54335L20.9572 3.5082C20.8853 3.43632 20.8 3.37931 20.7061 3.34041C20.6122 3.30152 20.5116 3.28149 20.4099 3.28149C20.3083 3.28149 20.2076 3.30152 20.1137 3.34041C20.0198 3.37931 19.9345 3.43632 19.8627 3.5082Z" stroke="white" strokeWidth="2.0625" strokeLinecap="round" strokeLinejoin="round"/>
</g>
</svg>
